<svg style="position: absolute; width: 0; height: 0; overflow: hidden" version="1.1" xmlns="http://www.w3.org/2000/svg" xmlns:xlink="http://www.w3.org/1999/xlink">
    <defs>
        <symbol id="icon-mail" viewBox="0 -6 30 30">
            <title>mail</title>
            <path d="M15 11.9c-.9 0-1.7-.2-2.3-.7l-5.7-4.4v8.1c0 .1 0 .3.1.4.1.1.2.2.3.2 2.5.4 5 .5 7.5.5s5-.2 7.5-.5c.1 0 .3-.1.4-.2.2-.1.2-.3.2-.4v-8.1l-5.7 4.4c-.6.5-1.4.7-2.3.7zm-1.3-2.3c.3.3.8.4 1.3.4s1-.1 1.3-.4l6.1-4.7c.3-.3.5-.6.6-1v-.8c0-.1 0-.3-.1-.4-.1-.1-.2-.2-.4-.2-2.5-.3-5-.5-7.5-.5s-5 .2-7.5.5c-.1 0-.2.1-.3.2-.2.1-.2.3-.2.4v.9c.1.3.3.6.6 1l6.1 4.6z"></path>
        </symbol>

        <symbol id="icon-search" viewBox="0 0 32 32">
            <title>search</title>
            <path class="path1" d="M31.008 27.231l-7.58-6.447c-0.784-0.705-1.622-1.029-2.299-0.998 1.789-2.096 2.87-4.815 2.87-7.787 0-6.627-5.373-12-12-12s-12 5.373-12 12 5.373 12 12 12c2.972 0 5.691-1.081 7.787-2.87-0.031 0.677 0.293 1.515 0.998 2.299l6.447 7.58c1.104 1.226 2.907 1.33 4.007 0.23s0.997-2.903-0.23-4.007zM12 20c-4.418 0-8-3.582-8-8s3.582-8 8-8 8 3.582 8 8-3.582 8-8 8z"></path>
        </symbol>

        <symbol id="icon-home" viewBox="0 0 32 32">
            <title>home3</title>
            <path class="path1" d="M32 19l-6-6v-9h-4v5l-6-6-16 16v1h4v10h10v-6h4v6h10v-10h4z"></path>
        </symbol>

        <symbol id="icon-facebook" viewBox="0 0 32 32">
            <title>facebook</title>
            <path class="path1" d="M19 6h5v-6h-5c-3.86 0-7 3.14-7 7v3h-4v6h4v16h6v-16h5l1-6h-6v-3c0-0.542 0.458-1 1-1z"></path>
        </symbol>

        <symbol id="icon-twitter" viewBox="0 0 32 32">
            <title>twitter</title>
            <path class="path1" d="M32 7.075c-1.175 0.525-2.444 0.875-3.769 1.031 1.356-0.813 2.394-2.1 2.887-3.631-1.269 0.75-2.675 1.3-4.169 1.594-1.2-1.275-2.906-2.069-4.794-2.069-3.625 0-6.563 2.938-6.563 6.563 0 0.512 0.056 1.012 0.169 1.494-5.456-0.275-10.294-2.888-13.531-6.862-0.563 0.969-0.887 2.1-0.887 3.3 0 2.275 1.156 4.287 2.919 5.463-1.075-0.031-2.087-0.331-2.975-0.819 0 0.025 0 0.056 0 0.081 0 3.181 2.263 5.838 5.269 6.437-0.55 0.15-1.131 0.231-1.731 0.231-0.425 0-0.831-0.044-1.237-0.119 0.838 2.606 3.263 4.506 6.131 4.563-2.25 1.762-5.075 2.813-8.156 2.813-0.531 0-1.050-0.031-1.569-0.094 2.913 1.869 6.362 2.95 10.069 2.95 12.075 0 18.681-10.006 18.681-18.681 0-0.287-0.006-0.569-0.019-0.85 1.281-0.919 2.394-2.075 3.275-3.394z"></path>
        </symbol>

        <symbol id="icon-lock"  viewBox="0 -6 30 30">
            <title>lock</title>
            <path d="M21.6 8.3c-.2-.2-.5-.3-.9-.3h-.7v-2.6c0-1.3-.5-2.4-1.4-3.2-.9-.8-2.1-1.2-3.6-1.2s-2.7.4-3.6 1.2c-.9.8-1.4 1.9-1.4 3.2v2.6h-.7c-.3 0-.7.1-.9.4-.3.2-.4.5-.4.8v6.1c0 .3.1.5.3.7.2.2.4.3.7.4 1.9.4 3.9.6 6 .6 2 0 4-.2 5.9-.6.3-.1.5-.2.7-.4.2-.2.3-.4.3-.7v-6.1c.1-.3 0-.6-.3-.9zm-8.6-2.4c0-1.3.7-1.9 2-1.9s2 .6 2 1.9v2.1h-4v-2.1z"></path>
        </symbol>

        <symbol id="icon-sound" viewBox="0 0 80 80">
            <title>sound</title>
            <path class="path1" d="M21.248 18.264c-4.488 4.476-24.108 32.46-7.156 49.408 16.944 16.952 44.92-2.672 49.416-7.156 4.484-4.476-1.34-17.58-13.008-29.248-11.676-11.676-24.764-17.504-29.252-13.004zM58.304 56.624c-1.328 1.312-11.58-1.828-21.456-11.712-9.868-9.876-13.024-20.132-11.696-21.452 1.312-1.328 11.576 1.828 21.44 11.704 9.884 9.868 13.032 20.132 11.712 21.46zM61.736 23.928l7.616-7.624c1.564-1.564 1.564-4.092 0-5.656-1.56-1.564-4.092-1.564-5.656 0l-7.616 7.624c-1.564 1.564-1.564 4.096 0 5.656 1.56 1.56 4.092 1.56 5.656 0zM44.496 15.2c1.932 1.072 4.364 0.38 5.44-1.552l4.348-7.704c1.072-1.932 0.38-4.364-1.552-5.44-1.928-1.076-4.364-0.38-5.44 1.552l-4.348 7.704c-1.072 1.936-0.376 4.372 1.552 5.44zM79.488 27.264c-1.068-1.932-3.508-2.628-5.44-1.552l-7.76 4.244c-1.932 1.072-2.628 3.512-1.552 5.44 1.072 1.932 3.508 2.628 5.44 1.552l7.76-4.244c1.932-1.076 2.628-3.508 1.552-5.44z"></path>
        </symbol>
    </defs>
</svg>